<svg xmlns="http://www.w3.org/2000/svg" viewBox="0 0 512 512">
    <title>Artboard 131</title>
    <g id="Garbage_Truck" data-name="Garbage Truck">
        <circle cx="192" cy="362.66667" r="42.66667" style="fill:#3412d4" />
        <circle cx="405.33333" cy="362.66667" r="42.66667" style="fill:#3412d4" />
        <path
            d="M298.66667,106.66667H142.22222a42.66667,42.66667,0,0,0-25.6,8.53333L59.73333,157.86667A42.66667,42.66667,0,0,0,42.66667,192V320a42.66666,42.66666,0,0,0,42.66666,42.66667h256V149.33333A42.66665,42.66665,0,0,0,298.66667,106.66667Z"
            style="fill:#ec590a" />
        <path
            d="M469.33333,362.66667H234.66667v-192H366.32689a42.66667,42.66667,0,0,1,30.16989,12.49677l60.33978,60.33978a42.66667,42.66667,0,0,1,12.49677,30.16989Z"
            style="fill:#ec590a" />
        <rect x="384" y="256" width="85.33333" height="42.66667" rx="21.33331" ry="21.33331"
            style="fill:#d34000" />
        <path
            d="M456.83594,243.5026,405.33464,192h-106.668v64H465.36849A42.51994,42.51994,0,0,0,456.83594,243.5026Z"
            style="fill:#c1aeff" />
        <path
            d="M405.33472,192H384.00138c-.19669,0-.39266.00521-.58667.016q-.29114-.01611-.58667-.016H361.49471a10.66667,10.66667,0,1,0,0,21.33333H382.828q.29505,0,.58667-.01595c.194.01074.39.01595.58667.01595h13.11206a10.66721,10.66721,0,0,0,1.83171,2.44727l15.0848,15.085q.209.209.42619.404.1947.2168.40348.42578l15.08472,15.08529a10.66678,10.66678,0,0,0,15.11539-15.05469L433.05452,219.7207l-.01611-.01627L433.03,219.696l-.01742-.01757-.02962-.0293c-.04036-.04069-.08073-.08106-.12061-.12077l-.02115-.02116c-1.70866-1.70866-2.89633-2.89648-2.89633-2.89648q-.20848-.2085-.42529-.403-.17968-.20019-.37126-.39355L405.33472,192Z"
            style="fill:#9a7bff" />
        <path
            d="M371.5026,243.5026l-60.33854-60.33984a42.66324,42.66324,0,0,0-30.16778-12.49609H234.66667V149.33333A42.66666,42.66666,0,0,0,192,106.66667H142.22231a42.66669,42.66669,0,0,0-25.6,8.53332l-56.889,42.66668A42.66665,42.66665,0,0,0,42.66667,192V320a42.66666,42.66666,0,0,0,42.66666,42.66667H384V273.67445A42.6699,42.6699,0,0,0,371.5026,243.5026Z"
            style="fill:#ff8132" />
        <rect x="42.66667" y="298.66667" width="42.66667" height="64" rx="21.33331" ry="21.33331"
            style="fill:#ff690b" />
        <path
            d="M371.5026,243.5026,320.0013,192H288a32,32,0,0,0,0,64h92.03516A42.52,42.52,0,0,0,371.5026,243.5026Z"
            style="fill:#d1c2ff" />
        <path
            d="M309.3312,192H287.757l-.01562.0013h-.10417l-.02083.0013h-.082l-.02214.00131h-.04948a.25129.25129,0,0,0-.03125.0013h-.05078l-.02474.0013h-.04948a.221.221,0,0,1-.02864.0013h-.02214l-.02995.0013h-.01953l-.03125.00131h-.02213l-.02865.0013h-.02344l-.02734.0013H287.05a.221.221,0,0,1-.02864.0013l-.02084.0013h-.02995l-.02213.00131a.23089.23089,0,0,0-.03.0013h-.02083l-.02995.0013h-.02214a.221.221,0,0,1-.02864.0013l-.02084.00131a.262.262,0,0,0-.03125.0013H286.744a.23089.23089,0,0,1-.03.0013l-.02083.0013a.23089.23089,0,0,0-.02995.0013h-.02083a.23925.23925,0,0,1-.02995.00131l-.02213.0013-.02865.0013-.02474.0013-.02734.0013-.02084.00131a.23074.23074,0,0,0-.02994.0013H286.438l-.03125.0026h-.01823l-.03125.00261h-.02343l-.02735.0026H286.283l-.02734.00261-.02344.0013a.19255.19255,0,0,0-.02734.0013.11939.11939,0,0,0-.02214.0013.20185.20185,0,0,0-.02864.0013l-.02344.00131-.02734.0013a.14183.14183,0,0,1-.02344.0013.19262.19262,0,0,1-.02734.0013l-.02474.00261a.18377.18377,0,0,0-.026.0013l-.02474.0013-.026.0013-.026.00261a.14183.14183,0,0,0-.02344.0013l-.026.0013-.026.0013-.02344.00261a.19255.19255,0,0,0-.02734.0013l-.02344.0013-.02734.0026a.15664.15664,0,0,0-.02474.00131l-.02474.0013-.026.0026-.026.00131-.02474.0026-.026.0013-.02213.0013-.02865.00261-.02213.0013-.02865.0026-.02213.00131-.02865.0026-.02214.0013-.02864.00261-.02083.0013a.23442.23442,0,0,1-.02865.0026l-.02344.00261-.02734.0013-.02214.0026a.19524.19524,0,0,0-.02864.00261l-.02214.0013-.02864.0026-.02084.00131a.23269.23269,0,0,1-.02995.0026l-.02083.0026-.03.00261-.01953.0013a.23269.23269,0,0,1-.02995.0026l-.02213.00261-.02865.0026-.02083.00261a.25463.25463,0,0,0-.02995.0026l-.02083.0013a.23239.23239,0,0,1-.02865.00261l-.02083.0026-.03125.00261-.01953.0026a.25309.25309,0,0,0-.03125.0026l-.01693.00131-.03255.0039-.01953.0013-.02995.00391-.01953.0013-.03125.00391-.01953.0013-.03125.00391-.01693.0013-.03385.00391-.01823.0026a.27468.27468,0,0,0-.03256.0026l-.01562.00261-.03516.0039-.01562.00131-.03386.0039-.01562.0013-.03385.00391-.01823.00261a.27607.27607,0,0,1-.03125.0026l-.01823.0026-.03125.00391-.01953.0026-.03256.00391-.01562.0013-.03386.00391-.01692.0026-.03386.00391-.01562.0013-.03386.00521-.01692.0013-.03386.00391-.01432.0026-.03516.00391-.01692.0026-.03386.00391-.01432.0026-.03516.00391-.01562.0026-.03516.00391-.01432.0026-.03386.00391-.01692.0026-.03386.00391-.01432.0026a.37923.37923,0,0,0-.03776.00521l-.01172.00131c-.013.0013-.026.0039-.04036.0052l-.00782.00131-.03776.0052-.01432.00261-.03516.0039-.01432.00261-.03515.00521-.01563.0026a.32522.32522,0,0,0-.03516.00521l-.013.0013-.03645.00521-.01433.0026c-.013.00131-.026.00261-.03906.00521l-.00781.0013a.3766.3766,0,0,0-.04037.00651l-.01041.00131c-.01433.0013-.02995.0039-.04427.00651h-.00391l-.04167.00651-.00911.0013c-.01433.0026-.02865.00521-.043.00651l-.00651.0013-.04037.00651-.00911.0013-.043.00651-.00651.00131-.04036.00651-.00912.0013c-.01562.0026-.03.00521-.04557.00651l-.00261.0013c-.01562.00261-.02994.00521-.04557.00651l-.00521.0013-.04687.00782h-.0013c-.013.0026-.02865.00521-.04167.00651l-.00912.0026a.39919.39919,0,0,0-.04166.00651l-.00781.0013c-.01433.00261-.02865.00521-.043.00651l-.00651.00131c-.03256.00651-.06381.01172-.09766.01692A32.00877,32.00877,0,0,0,256.00047,223.612a10.66706,10.66706,0,0,0,10.526,10.76432c.04818,0,.09506.0013.14323.0013a10.66674,10.66674,0,0,0,10.66276-10.52734,10.70223,10.70223,0,0,1,10.66537-10.51693H309.3312a10.66667,10.66667,0,1,0,0-21.33333Z"
            style="fill:#e4dbff" />
        <circle cx="394.66667" cy="288" r="10.66667" style="fill:#dcecf7" />
        <circle cx="458.66667" cy="288" r="10.66667" style="fill:#dcecf7" />
        <path
            d="M42.61566,320.102H64a0,0,0,0,1,0,0v42.5647a0,0,0,0,1,0,0H42.61566a21.28233,21.28233,0,0,1-21.28233-21.28233v0A21.28233,21.28233,0,0,1,42.61566,320.102Z"
            style="fill:#d1c2ff" />
        <circle cx="53.33333" cy="352" r="10.66667" style="fill:#ac93ff" />
        <rect x="320" y="213.33333" width="21.33333" height="42.66667" rx="10.66666" ry="10.66666"
            style="fill:#ff9c5e" />
        <rect x="405.33333" y="213.33333" width="21.33333" height="42.66667" rx="10.66666"
            ry="10.66666" style="fill:#ec590a" />
        <circle cx="320" cy="362.66667" r="42.66667" style="fill:#480fed" />
        <circle cx="320" cy="362.66667" r="21.33333" style="fill:#d1c2ff" />
        <circle cx="106.66667" cy="362.66667" r="42.66667" style="fill:#480fed" />
        <circle cx="106.66667" cy="362.66667" r="21.33333" style="fill:#d1c2ff" />
        <rect x="149.33333" y="341.33333" width="128" height="21.33333" rx="10.66666" ry="10.66666"
            style="fill:#ec590a" />
        <rect x="234.66667" y="192" width="21.33333" height="149.33333" rx="10.66666" ry="10.66666"
            style="fill:#ec590a" />
        <path
            d="M288,277.33333h21.33337A10.66665,10.66665,0,0,1,320,288v0a10.66666,10.66666,0,0,1-10.66666,10.66666H288A10.66666,10.66666,0,0,1,277.33333,288v0A10.66666,10.66666,0,0,1,288,277.33333Z"
            style="fill:#d34000" />
        <rect x="234.66667" y="149.33333" width="106.66667" height="21.33333" rx="10.66666"
            ry="10.66666" style="fill:#d34000" />
        <rect x="234.66667" y="106.66667" width="85.33333" height="21.33333" rx="10.66666"
            ry="10.66666" style="fill:#ff690b" />
        <rect x="341.33333" y="320" width="149.33333" height="42.66667" rx="21.33331" ry="21.33331"
            style="fill:#845eff" />
        <rect x="405.33333" y="341.33333" width="74.66666" height="21.33333" rx="10.66666"
            ry="10.66666" style="fill:#602fff" />
        <rect x="341.33333" y="320" width="64" height="42.66667" rx="21.33331" ry="21.33331"
            style="fill:#d1c2ff" />
        <rect x="85.33333" y="170.66667" width="42.66667" height="106.66667" rx="21.33331"
            ry="21.33331" style="fill:#d34000" />
        <rect x="170.66667" y="170.66667" width="42.66667" height="106.66667" rx="21.33331"
            ry="21.33331" style="fill:#d34000" />
        <rect x="85.33333" y="192" width="21.33333" height="64" rx="10.66666" ry="10.66666"
            style="fill:#b22a00" />
        <rect x="170.66667" y="192" width="21.33333" height="64" rx="10.66666" ry="10.66666"
            style="fill:#b22a00" />
        <rect x="64" y="170.66667" width="21.33333" height="106.66667" rx="10.66666" ry="10.66666"
            style="fill:#ffceaf" />
        <rect x="64" y="170.66667" width="21.33333" height="106.66667" rx="10.66666" ry="10.66666"
            style="fill:#ff9c5e" />
        <rect x="149.33333" y="170.66667" width="21.33333" height="106.66667" rx="10.66666"
            ry="10.66666" style="fill:#ffceaf" />
        <rect x="149.33333" y="170.66667" width="21.33333" height="106.66667" rx="10.66666"
            ry="10.66666" style="fill:#ff9c5e" />
    </g>
</svg>